# xmcd
#
# Track frame offsets: 
#        150
#        10766
#        48539
#        76532
#        89340
#        112260
#        140451
#        174326
#        210064
#        240691
#        264891
#        323186
#        337010
#
# Disc length: 4635 seconds
#
# Revision: 0
# Processed by: cddbd v1.5.2PL0 Copyright (c) Steve Scherf et al.
# Submitted via: ExactAudioCopy v1.1
#
DISCID=a312190d
DTITLE=Conni - Conni und das Familienfest
DYEAR=2015
DGENRE=Hörspiel
TTITLE0=Titellied "Meine Freundin Conni"
TTITLE1=Summ, summ, summ
TTITLE2=Opa ist Opa
TTITLE3=Ein ganz spezielles Geschenk
TTITLE4=Eintritt verboten!
TTITLE5=Ein volles Haus
TTITLE6=Die goldene 70
TTITLE7=Bienenalarm
TTITLE8=Schöne Bescherung
TTITLE9=Erinnerungen
TTITLE10=Noch eine Überraschung
TTITLE11=Doppelgeburtstag
TTITLE12=Titellied "Meine Freundin Conni"
EXTD=
EXTT0=
EXTT1=
EXTT2=
EXTT3=
EXTT4=
EXTT5=
EXTT6=
EXTT7=
EXTT8=
EXTT9=
EXTT10=
EXTT11=
EXTT12=
PLAYORDER=
